<?xml version="1.0" encoding="UTF-8"?>
<svg version="1.1" xmlns="http://www.w3.org/2000/svg" width="385" height="386">
<path d="M0 0 C1.58531685 1.58531685 1.28479578 3.17540474 1.375 5.375 C1.2650606 14.99469747 -4.01524815 22.82241101 -10 30 C-9.175 30.94875 -8.35 31.8975 -7.5 32.875 C-5 35.75 -5 35.75 -5 38 C-4.49597656 38.2371875 -3.99195313 38.474375 -3.47265625 38.71875 C-0.03755795 40.49870615 3.25124313 42.50111205 6.5625 44.5 C7.23474609 44.90347656 7.90699219 45.30695313 8.59960938 45.72265625 C11.4413475 47.4327787 14.2391622 49.15944147 17 51 C20.48531709 51.341933 23.6407137 50.98023338 27 50 C28.78579976 48.53215971 29.95113579 46.98123622 31.30859375 45.11328125 C33.44984403 42.43795469 35.86856314 40.37977378 38.5 38.1875 C39.84578125 37.06408203 39.84578125 37.06408203 41.21875 35.91796875 C44.13602801 33.90619417 46.55879841 32.81775807 50 32 C51.485 32.495 51.485 32.495 53 33 C53 33.66 53 34.32 53 35 C54.10408203 34.13375 54.10408203 34.13375 55.23046875 33.25 C56.20628906 32.5075 57.18210937 31.765 58.1875 31 C59.15042969 30.2575 60.11335938 29.515 61.10546875 28.75 C64.2046974 26.87624233 65.48039865 26.17856954 69 27 C71.45608336 29.43004714 73.42762679 32.06889326 75.5234375 34.8125 C77.87671843 37.27308432 77.87671843 37.27308432 81.30078125 37.58984375 C85.9336532 36.85112816 88.93662282 35.10399558 92.8125 32.5625 C94.13144002 31.73035716 95.45044732 30.89832094 96.76953125 30.06640625 C97.83558594 29.38449219 98.90164062 28.70257813 100 28 C102.90295805 26.54852097 104.77261779 26.62760975 108 27 C111.03778066 29.18720208 113.5164447 31.45600029 116 34.25 C118.67737001 36.59269876 120.46758265 36.69138266 124 37 C127.40935646 36.44268843 127.40935646 36.44268843 130.9375 35.375 C131.58211182 35.19549805 132.22672363 35.01599609 132.89086914 34.83105469 C136.30767697 33.85919947 139.67686464 32.78599136 143.03125 31.6171875 C143.68617432 31.3898291 144.34109863 31.1624707 145.01586914 30.92822266 C146.83769173 30.28522645 148.65155412 29.61980513 150.46484375 28.953125 C159.32645055 26.5639183 164.44834504 28.77698452 172.4375 32.5625 C184.1024958 37.8166917 195.7988852 40.46152164 208.30639648 42.75415039 C209.0019313 42.88520172 209.69746613 43.01625305 210.41407776 43.15127563 C212.31512715 43.50596933 214.21974546 43.84137863 216.12451172 44.17553711 C219 45 219 45 221 48 C220.34 48.99 219.68 49.98 219 51 C200.4972741 49.20075089 181.83330195 45.97220747 164.9140625 38.01953125 C158.33064774 34.95781216 153.84737339 35.5351752 147.19921875 37.93359375 C143.93174064 39.17106418 140.67810673 40.44117074 137.42382812 41.71289062 C121.73485273 47.65208482 121.73485273 47.65208482 114.125 44.9375 C110.3983597 42.62698301 109.10153943 40.78277097 107 37 C102.22627223 37.50769335 99.26559947 38.80946647 95.3125 41.5 C88.84416932 45.86589955 83.7728147 46.93991917 76 46 C72.89648863 44.831334 70.18322404 43.53354079 68 41 C67.79296875 38.32421875 67.79296875 38.32421875 68 36 C67.05898437 36.6496875 66.11796875 37.299375 65.1484375 37.96875 C63.89111052 38.81322334 62.63327063 39.65693336 61.375 40.5 C60.75753906 40.92925781 60.14007813 41.35851562 59.50390625 41.80078125 C55.52341717 44.44047401 52.93525416 45.54667431 48 45 C47.67 44.01 47.34 43.02 47 42 C45.72799029 43.10281127 44.45744147 44.20730769 43.1875 45.3125 C42.47980469 45.92738281 41.77210937 46.54226562 41.04296875 47.17578125 C37.09834155 50.69803919 35.57162007 52.83610547 34 58 C33 59 33 59 29.75 59.125 C26.66396211 59.02213207 23.98575886 58.72382033 21 58 C21.061875 59.03125 21.12375 60.0625 21.1875 61.125 C20.84364064 68.23142678 16.94714163 73.17767158 12 78 C4.9211301 83.94962161 -6.44577353 88.07700593 -15.6875 88.5625 C-19.4939117 87.9161282 -20.73680901 87.07793975 -23 84 C-24.74603382 80.50793235 -24.42701195 76.81798922 -24 73 C-21.4247665 66.39396623 -17.24781015 63.18070335 -11 60 C-6.38491082 58.14811627 -1.73532369 56.5223089 3 55 C0.16574568 52.77961643 -2.72933542 50.99432491 -5.875 49.25 C-10.87871395 46.26984684 -15.69308317 42.73510888 -17.6875 37.03515625 C-18.53847689 34.67079433 -19.00401149 33.57696609 -21 32 C-24.47367557 31.47913207 -27.74539251 31.24264843 -31.24951172 31.26220703 C-36.59753622 31.2709192 -36.59753622 31.2709192 -39.0078125 29.6484375 C-40 28 -40 28 -39.8125 25.375 C-39 23 -39 23 -37 22 C-35.12620395 21.92966231 -33.24998898 21.9156978 -31.375 21.9375 C-29.87066406 21.95103516 -29.87066406 21.95103516 -28.3359375 21.96484375 C-27.56507812 21.97644531 -26.79421875 21.98804688 -26 22 C-26.350625 21.01 -26.70125 20.02 -27.0625 19 C-28.45235547 14.1404344 -28.04148286 9.67954328 -26.1953125 4.9296875 C-24.77492531 2.63664412 -23.42996197 1.6911282 -21.125 0.3125 C-20.44695313 -0.10386719 -19.76890625 -0.52023438 -19.0703125 -0.94921875 C-12.52830935 -4.26959393 -6.24926173 -3.71979865 0 0 Z M-16 10 C-17.24598883 13.15650503 -17.13832828 14.58501515 -16.0625 17.8125 C-15.711875 18.534375 -15.36125 19.25625 -15 20 C-11.67467889 17.30807339 -10.47545057 13.93453485 -9 10 C-9 9.01 -9 8.02 -9 7 C-12.0328771 7 -13.59858534 8.21433269 -16 10 Z M-13 73 C-15.2773501 75.81509993 -15.2773501 75.81509993 -15 79 C-4.64086758 77.72163898 3.32563898 73.6805167 10.0390625 65.61328125 C11.25586992 63.88339397 11.25586992 63.88339397 11 61 C2.11958929 61 -6.7480417 67.08446995 -13 73 Z " fill="#FFFFFF" transform="translate(51,149)"/>
<path d="M0 0 C3.125 0.3125 3.125 0.3125 4.8125 1.88671875 C6.60876756 5.20660611 6.38106672 7.68282385 6.25 11.4375 C6.1027507 17.47545742 6.33572999 23.32250436 7.125 29.3125 C7.57939453 28.31669922 7.57939453 28.31669922 8.04296875 27.30078125 C10.52230467 22.07510401 12.73278986 18.09468096 17.125 14.3125 C17.455 13.9825 17.785 13.6525 18.125 13.3125 C24.52847072 13.66824837 24.52847072 13.66824837 26.78515625 16.10546875 C29.80621436 21.08184726 30.03723714 27.12837561 30.55078125 32.828125 C30.62611084 33.62718262 30.70144043 34.42624023 30.77905273 35.24951172 C30.92444961 36.85385774 31.05333043 38.45980066 31.16430664 40.06689453 C31.48429634 43.64569625 31.79593718 45.81966398 33.8203125 48.8515625 C36.9783466 50.85343496 38.42712869 50.96821421 42.125 50.3125 C44.92343844 48.83842237 47.40423414 47.01108995 49.9375 45.125 C51.35904653 44.11358973 52.78221161 43.10445029 54.20703125 42.09765625 C54.88459473 41.61441895 55.5621582 41.13118164 56.26025391 40.63330078 C65.47920741 34.10351046 65.47920741 34.10351046 71.0625 34.8125 C72.04476562 35.00779297 72.04476562 35.00779297 73.046875 35.20703125 C81.20294945 35.62096736 88.97108521 27.52156297 95.0078125 22.765625 C105.71474198 14.33962035 105.71474198 14.33962035 110.375 14.25 C113.125 15.3125 113.125 15.3125 115.5 16.875 C120.08197838 19.38417864 124.27075238 18.83399777 129.14501953 17.46313477 C133.80555909 15.88983379 138.42232614 14.20859867 143.0390625 12.51171875 C158.42268959 7.07915985 158.42268959 7.07915985 165.24438477 10.3190918 C166.17528931 10.81082886 166.17528931 10.81082886 167.125 11.3125 C175.09273994 12.2756334 182.72694358 10.80427238 190.484375 9.06640625 C207.31261567 5.58158817 224.78086642 5.99887747 241.125 11.3125 C241.455 12.6325 241.785 13.9525 242.125 15.3125 C238.76216667 16.39728494 236.45356341 16.24546102 233.125 15.35546875 C227.74910821 14.10371992 222.56499096 13.96901699 217.0625 14 C216.05678955 14.00346436 215.0510791 14.00692871 214.01489258 14.01049805 C203.53138439 14.16180297 193.80015844 15.72279958 183.8125 19 C178.21276698 20.77230607 171.65131249 21.90037171 166.12109375 19.41015625 C165.54488281 19.04792969 164.96867188 18.68570313 164.375 18.3125 C160.44751512 15.89558623 158.68080041 15.95842225 154.125 16.3125 C151.5056685 17.11908779 149.08385761 17.96657473 146.5625 19 C145.1525343 19.548667 143.74237418 20.09683465 142.33203125 20.64453125 C140.28158129 21.45521798 138.23264159 22.26950297 136.18505859 23.08740234 C121.47571327 28.91170098 121.47571327 28.91170098 114.125 27.3125 C111.3125 25.25 111.3125 25.25 109.125 23.3125 C104.27911268 23.45527311 101.43578489 26.2240726 98 29.3125 C96.85615122 30.31067844 95.71160736 31.30806087 94.56640625 32.3046875 C93.99422363 32.80709961 93.42204102 33.30951172 92.83251953 33.82714844 C90.24109027 36.08140288 87.59415211 38.26037535 84.9375 40.4375 C84.05707031 41.16195312 83.17664063 41.88640625 82.26953125 42.6328125 C79.23487925 45.00968018 77.60154976 45.4502363 73.8125 45.4375 C73.05324219 45.44007813 72.29398437 45.44265625 71.51171875 45.4453125 C69.125 45.3125 69.125 45.3125 66.8046875 44.47265625 C62.42504269 44.21089905 59.86964634 46.98123404 56.5625 49.625 C55.25066396 50.64446202 53.93691822 51.66147234 52.62109375 52.67578125 C52.04544678 53.13251221 51.4697998 53.58924316 50.87670898 54.05981445 C46.06041005 57.50405555 41.93966435 58.09826545 36.125 57.3125 C30.92352981 55.52449462 27.52747257 52.19416588 25.125 47.3125 C24.00036501 43.77569229 23.209276 40.19059166 22.4375 36.5625 C22.01882298 34.67145425 21.59833962 32.78080724 21.17578125 30.890625 C20.99700439 30.05950195 20.81822754 29.22837891 20.6340332 28.37207031 C20.19371185 26.26696931 20.19371185 26.26696931 19.125 24.3125 C17.8053392 27.53878592 16.49555472 30.76899304 15.1875 34 C14.81431641 34.91201172 14.44113281 35.82402344 14.05664062 36.76367188 C13.69892578 37.64990234 13.34121094 38.53613281 12.97265625 39.44921875 C12.4777771 40.66677856 12.4777771 40.66677856 11.97290039 41.90893555 C11.0452037 44.32633832 11.0452037 44.32633832 10.65405273 47.02270508 C10.125 49.3125 10.125 49.3125 7.8125 50.8125 C5.125 51.3125 5.125 51.3125 3.0625 50.11328125 C-3.34463972 44.15825824 -2.53843598 32.36682509 -2.875 24.3125 C-3.70644531 24.86679687 -4.53789063 25.42109375 -5.39453125 25.9921875 C-17.875 34.3125 -17.875 34.3125 -20.5 34 C-22.875 33.3125 -22.875 33.3125 -23.875 32.3125 C-24.16015625 29.96875 -24.16015625 29.96875 -23.875 27.3125 C-22.37109375 25.46875 -22.37109375 25.46875 -20.3125 23.8125 C-19.58675781 23.21953125 -18.86101562 22.6265625 -18.11328125 22.015625 C-16.10296051 20.48595686 -14.07025989 19.0095027 -12 17.5625 C-7.63723166 14.42130679 -6.58409457 11.73393289 -5.3125 6.6875 C-3.72112902 0.40447055 -3.72112902 0.40447055 0 0 Z " fill="#FFFFFF" transform="translate(131.875,231.6875)"/>
</svg>
